<?xml version="1.0" encoding="UTF-8"?>
<svg width="1382px" height="755px" viewBox="0 0 1382 755" version="1.1" xmlns="http://www.w3.org/2000/svg" xmlns:xlink="http://www.w3.org/1999/xlink">
    <title>diagonal shapes</title>
    <defs>
        <filter x="-0.9%" y="-1.6%" width="101.8%" height="103.3%" filterUnits="objectBoundingBox" id="filter-1">
            <feOffset dx="0" dy="2" in="SourceAlpha" result="shadowOffsetOuter1"></feOffset>
            <feGaussianBlur stdDeviation="2" in="shadowOffsetOuter1" result="shadowBlurOuter1"></feGaussianBlur>
            <feColorMatrix values="0 0 0 0 0   0 0 0 0 0   0 0 0 0 0  0 0 0 0.5 0" type="matrix" in="shadowBlurOuter1" result="shadowMatrixOuter1"></feColorMatrix>
            <feMerge>
                <feMergeNode in="shadowMatrixOuter1"></feMergeNode>
                <feMergeNode in="SourceGraphic"></feMergeNode>
            </feMerge>
        </filter>
    </defs>
    <g id="HI-FIDELITY" stroke="none" stroke-width="1" fill="none" fill-rule="evenodd" opacity="0.15">
        <g id="HOME" transform="translate(-44.000000, -704.000000)">
            <g id="diagonal-shapes" filter="url(#filter-1)" transform="translate(735.000000, 1081.562568) scale(-1, 1) translate(-735.000000, -1081.562568) translate(54.000000, 713.562568)">
                <path d="M326.583471,404.756731 L540.940116,404.756731 C582.058884,404.756731 615.392232,438.090079 615.392232,479.208847 C615.392232,520.327616 582.058884,553.660964 540.940116,553.660964 L326.583471,553.660964 C285.464702,553.660964 252.131354,520.327616 252.131354,479.208847 C252.131354,438.090079 285.464702,404.756731 326.583471,404.756731 Z" id="Rectangle" stroke="#979797" fill="#979797" opacity="0.3" transform="translate(433.761793, 479.208847) rotate(-45.000000) translate(-433.761793, -479.208847) "></path>
                <path d="M619.654116,153.139279 L751.104374,153.139279 C792.223143,153.139279 825.556491,186.472627 825.556491,227.591396 C825.556491,268.710164 792.223143,302.043513 751.104374,302.043513 L619.654116,302.043513 C578.535347,302.043513 545.201999,268.710164 545.201999,227.591396 C545.201999,186.472627 578.535347,153.139279 619.654116,153.139279 Z" id="Rectangle" stroke="#979797" transform="translate(685.379245, 227.591396) rotate(-45.000000) translate(-685.379245, -227.591396) "></path>
                <path d="M639.713074,386.98113 L786.980998,386.98113 C828.099767,386.98113 861.433115,420.314478 861.433115,461.433247 C861.433115,502.552016 828.099767,535.885364 786.980998,535.885364 L639.713074,535.885364 C598.594305,535.885364 565.260957,502.552016 565.260957,461.433247 C565.260957,420.314478 598.594305,386.98113 639.713074,386.98113 Z" id="Rectangle" stroke="#979797" transform="translate(713.347036, 461.433247) rotate(-45.000000) translate(-713.347036, -461.433247) "></path>
                <path d="M859.611824,126.72006 L1065.78692,126.72006 C1106.90569,126.72006 1140.23903,160.053408 1140.23903,201.172177 C1140.23903,242.290946 1106.90569,275.624294 1065.78692,275.624294 L859.611824,275.624294 C818.493056,275.624294 785.159707,242.290946 785.159707,201.172177 C785.159707,160.053408 818.493056,126.72006 859.611824,126.72006 Z" id="Rectangle" stroke="#979797" fill="#979797" opacity="0.3" transform="translate(962.699371, 201.172177) rotate(-45.000000) translate(-962.699371, -201.172177) "></path>
                <path d="M30.7313658,291.898793 L543.741782,291.898793 C584.86055,291.898793 618.193899,325.232142 618.193899,366.35091 C618.193899,407.469679 584.86055,440.803027 543.741782,440.803027 L30.7313658,440.803027 C-10.387403,440.803027 -43.7207511,407.469679 -43.7207511,366.35091 C-43.7207511,325.232142 -10.387403,291.898793 30.7313658,291.898793 Z" id="Rectangle" stroke="#979797" transform="translate(287.236574, 366.350910) rotate(-45.000000) translate(-287.236574, -366.350910) "></path>
                <path d="M110.927791,106.74158 L325.512729,106.74158 C366.631498,106.74158 399.964846,140.074928 399.964846,181.193697 C399.964846,222.312465 366.631498,255.645813 325.512729,255.645813 L110.927791,255.645813 C69.8090222,255.645813 36.4756741,222.312465 36.4756741,181.193697 C36.4756741,140.074928 69.8090222,106.74158 110.927791,106.74158 Z" id="Rectangle" fill="#979797" opacity="0.3" transform="translate(218.220260, 181.193697) rotate(-45.000000) translate(-218.220260, -181.193697) "></path>
                <path d="M818.478833,276.245032 L1331.48925,276.245032 C1372.60802,276.245032 1405.94137,309.57838 1405.94137,350.697149 C1405.94137,391.815918 1372.60802,425.149266 1331.48925,425.149266 L818.478833,425.149266 C777.360064,425.149266 744.026716,391.815918 744.026716,350.697149 C744.026716,309.57838 777.360064,276.245032 818.478833,276.245032 Z" id="Rectangle" stroke="#979797" transform="translate(1074.984041, 350.697149) rotate(-45.000000) translate(-1074.984041, -350.697149) "></path>
                <path d="M1113.15669,443.502744 C1154.27546,443.502744 1187.60881,476.836092 1187.60881,517.954861 L1187.60881,649.25827 C1187.60881,690.377039 1154.27546,723.710387 1113.15669,723.710387 C1072.03792,723.710387 1038.70457,690.377039 1038.70457,649.25827 L1038.70457,517.954861 C1038.70457,476.836092 1072.03792,443.502744 1113.15669,443.502744 Z" id="Rectangle" stroke="#979797" fill="#979797" opacity="0.3" transform="translate(1113.156691, 583.606566) scale(-1, 1) rotate(-45.000000) translate(-1113.156691, -583.606566) "></path>
            </g>
        </g>
    </g>
</svg>