<?xml version="1.0" encoding="UTF-8"?>
<svg width="661px" height="419px" viewBox="0 0 661 419" version="1.1" xmlns="http://www.w3.org/2000/svg" xmlns:xlink="http://www.w3.org/1999/xlink">
    <title>hero graphic</title>
    <defs>
        <polygon id="path-1" points="0 0.472966915 435.719416 0.472966915 435.719416 326.509513 0 326.509513"></polygon>
        <polygon id="path-3" points="-0.000180172414 0.588262931 432.557931 0.588262931 432.557931 326.626412 -0.000180172414 326.626412"></polygon>
    </defs>
    <g id="HI-FIDELITY" stroke="none" stroke-width="1" fill="none" fill-rule="evenodd">
        <g id="HOME" transform="translate(-664.000000, -322.000000)">
            <g id="intro" transform="translate(-74.821915, 175.750000)">
                <g id="hero-graphic" transform="translate(738.834110, 146.250000)">
                    <path d="M224.061603,414.192236 L71.8627582,352.009331 C62.922603,348.356335 61.7109435,336.190193 69.7547409,330.846279 L417.056888,100.112982 C429.938314,91.5547922 446.072754,89.492719 460.692844,94.5357448 L613.233116,147.146991 C622.536319,150.355861 624.263271,162.767939 616.189745,168.394723 L270.992013,408.989758 C257.243956,418.571327 239.575349,420.530702 224.061603,414.192236" id="Fill-1" fill="#222222"></path>
                    <path d="M224.061603,414.192236 L71.8627582,352.009331 C62.922603,348.356335 61.7109435,336.190193 69.7547409,330.846279 L417.056888,100.112982 C429.938314,91.5547922 446.072754,89.492719 460.692844,94.5357448 L613.233116,147.146991 C622.536319,150.355861 624.263271,162.767939 616.189745,168.394723 L270.992013,408.989758 C257.243956,418.571327 239.575349,420.530702 224.061603,414.192236 Z" id="Stroke-3" stroke="#000000"></path>
                    <polygon id="Fill-5" fill="#222222" points="64.3789366 321.997291 64.3789366 340.656847 77.6504366 335.45527"></polygon>
                    <polygon id="Fill-7" fill="#222222" points="621.345289 158.643072 621.345289 139.983516 608.073789 145.185093"></polygon>
                    <g id="Group-12" transform="translate(620.693966, 139.946220)">
                        <line x1="0.651323276" y1="18.6968517" x2="0.651323276" y2="0.0372956897" id="Fill-9" fill="#FFFFFF"></line>
                        <line x1="0.651323276" y1="18.6968517" x2="0.651323276" y2="0.0372956897" id="Stroke-11" stroke="#000000"></line>
                    </g>
                    <path d="M418.717034,83.6936609 C430.819602,75.6529312 445.978493,73.71556 459.714687,78.4536964 L459.714687,78.4536964 L612.254907,131.064924 C613.935002,131.644425 615.29063,132.61833 616.28916,133.832003 C617.365647,135.140427 618.028266,136.720508 618.256323,138.359435 C618.484383,139.998382 618.278314,141.699363 617.599941,143.251994 C616.970693,144.692191 615.932458,145.99922 614.474354,147.015434 L614.474354,147.015434 L269.276684,387.610425 C256.363522,396.610123 239.767895,398.450531 225.196247,392.496979 L225.196247,392.496979 L72.9975016,330.314114 C71.3810428,329.653621 70.0966328,328.627129 69.169403,327.384571 C68.1719979,326.047972 67.5864782,324.467629 67.4250013,322.846512 C67.263526,321.225409 67.5258001,319.560668 68.2399443,318.053675 C68.9038306,316.652736 69.9604848,315.393194 71.4148472,314.426985 L71.4148472,314.426985 Z" id="Fill-13" stroke="#222222" stroke-width="6" fill="#FFF47F"></path>
                    <path d="M224.061603,395.274133 L71.8627582,333.091228 C62.922603,329.438232 61.7109435,317.27209 69.7547409,311.928176 L417.056888,81.1948784 C429.938314,72.6366888 446.072754,70.5746155 460.692844,75.6176414 L613.233116,128.228887 C622.536319,131.437758 624.263271,143.849835 616.189745,149.47662 L270.992013,390.071654 C257.243956,399.653223 239.575349,401.612598 224.061603,395.274133 Z" id="Stroke-15" stroke="#000000"></path>
                    <g id="Group-20" transform="translate(63.060345, 321.920358)">
                        <line x1="1.31859181" y1="0.0769336207" x2="1.31859181" y2="18.7364897" id="Fill-17" fill="#FFFFFF"></line>
                        <line x1="1.31859181" y1="0.0769336207" x2="1.31859181" y2="18.7364897" id="Stroke-19" stroke="#000000"></line>
                    </g>
                    <g id="Group-23" opacity="0.3" transform="translate(0.000000, 4.816909)">
                        <mask id="mask-2" fill="white">
                            <use xlink:href="#path-1"></use>
                        </mask>
                        <g id="Clip-22"></g>
                        <path d="M109.192951,256.268413 L226.115839,304.041128 L206.612175,317.635137 C192.86502,327.220309 175.190106,329.176081 159.677261,322.84212 L7.48562328,260.655611 C-1.45993707,257.00712 -2.66709224,244.836473 5.37760603,239.494361 L352.677951,8.75655948 C365.560278,0.207378448 381.694718,-1.85559569 396.31661,3.18022328 L435.719416,16.7742319 L107.084934,235.107163 C99.0402353,240.449275 100.256399,252.619922 109.192951,256.268413" id="Fill-21" fill="#00FF00" mask="url(#mask-2)"></path>
                    </g>
                    <path d="M551.813511,81.8590841 L226.115839,308.858308 L109.192951,261.085593 C100.256399,257.437101 99.0402353,245.266455 107.084934,239.924343 L435.719416,21.5914116 L548.849675,60.6077478 C558.15558,63.8238254 559.885235,76.2286961 551.813511,81.8590841" id="Fill-24" fill="#00FFFF" opacity="0.3"></path>
                    <g id="Group-28" opacity="0.3" transform="translate(226.116379, 0.312599)">
                        <mask id="mask-4" fill="white">
                            <use xlink:href="#path-3"></use>
                        </mask>
                        <g id="Clip-27"></g>
                        <path d="M427.40482,77.1591966 L82.2034836,317.752429 C68.4563284,327.337602 50.7904233,329.292472 35.2775784,322.959412 L-0.000180172414,308.545619 L325.697492,81.5463948 C333.769216,75.9160069 332.039561,63.5111362 322.733656,60.2950586 L209.602497,21.2787224 L228.269259,8.87385172 C241.151587,0.315662069 257.286027,-1.73830345 271.907018,3.29751552 L424.449992,55.9078603 C433.746889,59.1239379 435.476544,71.5288086 427.40482,77.1591966" id="Fill-26" fill="#FF00FF" mask="url(#mask-4)"></path>
                    </g>
                    <path d="M524.812333,223.628739 L524.812333,223.628739 C523.588061,221.844131 524.042096,219.404597 525.825803,218.179424 L566.186225,190.483321 C567.273566,189.736506 568.759087,190.013071 569.505001,191.100411 C570.734678,192.892226 570.278841,195.340769 568.487027,196.570446 L528.151828,224.250334 C527.058182,225.000752 525.562751,224.722385 524.812333,223.628739" id="Fill-29" fill="#5AFFE6"></path>
                    <path d="M524.812333,223.628739 C523.588061,221.844131 524.042096,219.404597 525.825803,218.179424 L566.186225,190.483321 C567.273566,189.736506 568.759087,190.013071 569.505001,191.100411 C570.734678,192.892226 570.278841,195.340769 568.487027,196.570446 L528.151828,224.250334 C527.058182,225.000752 525.562751,224.722385 524.812333,223.628739 Z" id="Stroke-31" stroke="#000000"></path>
                    <polygon id="Fill-33" fill="#5AFFE6" points="303.998157 367.06679 303.998157 385.984894 306.021494 384.575044 306.021494 365.656941"></polygon>
                    <polygon id="Stroke-35" stroke="#000000" points="303.998157 367.06679 303.998157 385.984894 306.021494 384.575044 306.021494 365.656941"></polygon>
                </g>
            </g>
        </g>
    </g>
</svg>